<svg width="24" height="24" viewBox="0 0 24 24" fill="none" xmlns="http://www.w3.org/2000/svg">
<rect width="24" height="24" rx="12" fill="#F5EAEA"/>
<path fill-rule="evenodd" clip-rule="evenodd" d="M6.97994 6.97976C7.1752 6.7845 7.49179 6.7845 7.68705 6.97976L12.0002 11.2929L16.3133 6.97976C16.5085 6.7845 16.8251 6.7845 17.0204 6.97976C17.2156 7.17502 17.2156 7.4916 17.0204 7.68687L12.7073 12L17.0204 16.3131C17.2156 16.5084 17.2156 16.8249 17.0204 17.0202C16.8251 17.2155 16.5085 17.2155 16.3133 17.0202L12.0002 12.7071L7.68705 17.0202C7.49179 17.2155 7.1752 17.2155 6.97994 17.0202C6.78468 16.8249 6.78468 16.5084 6.97994 16.3131L11.2931 12L6.97994 7.68687C6.78468 7.4916 6.78468 7.17502 6.97994 6.97976Z" fill="#666666"/>
</svg>
